Recursive-Mono Casual SemiBold.ufo
<glyph name="parenleft" format="2">
  <advance width="600.0"/>
  <unicode hex="0028"/>
  <outline>
    <contour>
      <point x="344.36792452830184" y="731.9433962264151" type="curve" smooth="yes"/>
      <point x="243.3490566037736" y="630.9245283018868"/>
      <point x="186.9622641509434" y="475.2169811320755"/>
      <point x="186.9622641509434" y="302.4150943396226" type="curve" smooth="yes"/>
      <point x="186.9622641509434" y="294.87735849056605" type="line" smooth="yes"/>
      <point x="186.9622641509434" y="122.0754716981132"/>
      <point x="244.0566037735849" y="-34.339622641509436"/>
      <point x="344.3679245283019" y="-134.6509433962264" type="curve" smooth="yes"/>
      <point x="370.6415094339623" y="-160.92452830188677"/>
      <point x="394.2075471698113" y="-172.70754716981133"/>
      <point x="422.8962264150943" y="-172.70754716981133" type="curve" smooth="yes"/>
      <point x="460.00000000000006" y="-172.70754716981133"/>
      <point x="483.3207547169812" y="-159.9245283018868"/>
      <point x="501.8113207547171" y="-143.31132075471697" type="curve"/>
      <point x="501.8113207547171" y="-137.89622641509433" type="line"/>
      <point x="388.16037735849056" y="-28.70754716981132"/>
      <point x="323.3301886792453" y="126.95283018867924"/>
      <point x="323.3301886792453" y="294.87735849056605" type="curve" smooth="yes"/>
      <point x="323.3301886792453" y="302.4150943396226" type="line" smooth="yes"/>
      <point x="323.3301886792453" y="469.33962264150944"/>
      <point x="387.45283018867923" y="626.0"/>
      <point x="501.81132075471703" y="735.188679245283" type="curve"/>
      <point x="501.81132075471703" y="740.6037735849056" type="line"/>
      <point x="483.3207547169811" y="757.2169811320755"/>
      <point x="460.0" y="770.0"/>
      <point x="422.89622641509436" y="770.0" type="curve" smooth="yes"/>
      <point x="394.2075471698113" y="770.0"/>
      <point x="370.6415094339623" y="758.2169811320754"/>
    </contour>
  </outline>
</glyph>
<glyph name="asterisk" format="2">
  <advance width="600.0"/>
  <unicode hex="002A"/>
  <outline>
    <contour>
      <point x="295.5849056603774" y="551.566037735849" type="curve" smooth="yes"/>
      <point x="268.4339622641509" y="551.5660377358491"/>
      <point x="246.4056603773585" y="547.4433962264152"/>
      <point x="231.2075471698113" y="541.6132075471698" type="curve"/>
      <point x="242.28301886792454" y="517.8301886792453"/>
      <point x="246.82075471698113" y="501.0"/>
      <point x="252.77358490566039" y="471.21698113207543" type="curve" smooth="yes"/>
      <point x="260.0188679245283" y="426.3207547169811"/>
      <point x="264.84905660377353" y="398.1981132075472"/>
      <point x="271.5566037735849" y="360.3490566037736" type="curve"/>
      <point x="265.55660377358487" y="356.3490566037736" type="line"/>
      <point x="229.04716981132074" y="387.7641509433962"/>
      <point x="200.24528301886795" y="415.88679245283015"/>
      <point x="155.22641509433964" y="446.10377358490564" type="curve" smooth="yes"/>
      <point x="127.61320754716981" y="465.5943396226415"/>
      <point x="98.70754716981132" y="453.9339622641509"/>
      <point x="76.09433962264151" y="416.95283018867923" type="curve" smooth="yes"/>
      <point x="68.55660377358491" y="404.58490566037733"/>
      <point x="64.14150943396227" y="389.92452830188677"/>
      <point x="60.0188679245283" y="376.97169811320754" type="curve"/>
      <point x="130.89622641509436" y="345.33962264150944"/>
      <point x="172.77358490566036" y="329.04716981132077"/>
      <point x="234.69811320754715" y="305.12264150943395" type="curve"/>
      <point x="234.69811320754715" y="299.12264150943395" type="line"/>
      <point x="185.0188679245283" y="281.6132075471698"/>
      <point x="149.38679245283018" y="271.5660377358491"/>
      <point x="101.2924528301887" y="249.64150943396228" type="curve" smooth="yes"/>
      <point x="70.84905660377358" y="236.688679245283"/>
      <point x="67.14150943396227" y="202.0754716981132"/>
      <point x="87.63207547169812" y="166.09433962264148" type="curve" smooth="yes"/>
      <point x="95.75471698113208" y="152.14150943396226"/>
      <point x="105.41509433962264" y="141.4811320754717"/>
      <point x="114.95283018867924" y="131.94339622641508" type="curve"/>
      <point x="173.58490566037736" y="174.06603773584905"/>
      <point x="209.9245283018868" y="202.35849056603774"/>
      <point x="260.72641509433964" y="243.35849056603772" type="curve"/>
      <point x="266.0188679245283" y="239.35849056603772" type="line"/>
      <point x="256.8962264150943" y="202.70754716981133"/>
      <point x="250.77358490566039" y="179.46226415094338"/>
      <point x="244.6509433962264" y="140.68867924528303" type="curve" smooth="yes"/>
      <point x="231.74528301886792" y="76.9245283018868"/>
      <point x="246.1132075471698" y="47.72641509433963"/>
      <point x="305.7075471698113" y="47.72641509433963" type="curve" smooth="yes"/>
      <point x="327.3207547169811" y="47.72641509433963"/>
      <point x="345.39622641509436" y="50.14150943396227"/>
      <point x="368.1320754716981" y="55.97169811320755" type="curve"/>
      <point x="357.4716981132076" y="79.46226415094338"/>
      <point x="351.6415094339623" y="98.0"/>
      <point x="346.39622641509436" y="134.56603773584905" type="curve" smooth="yes"/>
      <point x="341.9811320754717" y="174.6320754716981"/>
      <point x="338.5660377358491" y="198.33962264150944"/>
      <point x="330.7358490566038" y="240.06603773584905" type="curve"/>
      <point x="336.7358490566038" y="243.35849056603772" type="line"/>
      <point x="376.0" y="209.18867924528303"/>
      <point x="396.92452830188677" y="190.60377358490567"/>
      <point x="443.14150943396226" y="156.89622641509433" type="curve" smooth="yes"/>
      <point x="471.6792452830189" y="135.52830188679246"/>
      <point x="502.41509433962267" y="147.4811320754717"/>
      <point x="524.6132075471697" y="186.16981132075472" type="curve" smooth="yes"/>
      <point x="531.3207547169811" y="197.29245283018867"/>
      <point x="535.8584905660377" y="208.53773584905662"/>
      <point x="540.6886792452831" y="226.02830188679243" type="curve"/>
      <point x="465.1981132075471" y="259.3207547169811"/>
      <point x="422.64150943396226" y="276.24528301886795"/>
      <point x="365.76415094339626" y="297.0" type="curve"/>
      <point x="365.76415094339626" y="303.0" type="line"/>
      <point x="412.02830188679246" y="318.8018867924528"/>
      <point x="445.1981132075472" y="329.2641509433962"/>
      <point x="499.99999999999994" y="353.066037735849" type="curve" smooth="yes"/>
      <point x="531.1509433962264" y="365.60377358490564"/>
      <point x="534.9811320754717" y="397.16981132075466"/>
      <point x="512.6603773584906" y="436.7358490566038" type="curve" smooth="yes"/>
      <point x="506.8301886792453" y="447.27358490566036"/>
      <point x="499.70754716981133" y="456.10377358490564"/>
      <point x="486.75471698113205" y="469.88679245283015" type="curve"/>
      <point x="406.87735849056605" y="413.51886792452825"/>
      <point x="374.9056603773585" y="388.1792452830189"/>
      <point x="338.85849056603774" y="356.3490566037736" type="curve"/>
      <point x="333.5660377358491" y="360.3490566037736" type="line"/>
      <point x="343.39622641509436" y="392.7830188679245"/>
      <point x="350.5188679245283" y="416.8301886792453"/>
      <point x="355.9339622641509" y="458.0188679245283" type="curve" smooth="yes"/>
      <point x="366.00943396226415" y="524.1981132075472"/>
      <point x="350.9339622641509" y="551.566037735849"/>
    </contour>
  </outline>
</glyph>
<glyph name="equal" format="2">
  <advance width="600.0"/>
  <unicode hex="003D"/>
  <outline>
    <contour>
      <point x="52.924528301886795" y="485.37735849056605" type="line"/>
      <point x="52.924528301886795" y="480.2547169811321"/>
      <point x="52.924528301886795" y="474.83962264150944"/>
      <point x="52.924528301886795" y="469.00943396226415" type="curve" smooth="yes"/>
      <point x="52.924528301886795" y="384.40566037735846"/>
      <point x="69.29245283018868" y="364.62264150943395"/>
      <point x="138.2830188679245" y="364.62264150943395" type="curve"/>
      <point x="550.0283018867924" y="364.62264150943395" type="line"/>
      <point x="553.1509433962265" y="381.23584905660374"/>
      <point x="555.566037735849" y="399.5566037735849"/>
      <point x="555.566037735849" y="415.04716981132077" type="curve" smooth="yes"/>
      <point x="555.566037735849" y="467.7169811320755"/>
      <point x="538.566037735849" y="485.37735849056605"/>
      <point x="491.33962264150944" y="485.37735849056605" type="curve" smooth="yes"/>
    </contour>
    <contour>
      <point x="58.4622641509434" y="235.37735849056602" type="line"/>
      <point x="55.339622641509436" y="219.05660377358492"/>
      <point x="52.924528301886795" y="200.73584905660377"/>
      <point x="52.924528301886795" y="184.95283018867926" type="curve" smooth="yes"/>
      <point x="52.924528301886795" y="132.28301886792454"/>
      <point x="69.9245283018868" y="114.62264150943396"/>
      <point x="117.15094339622641" y="114.62264150943396" type="curve"/>
      <point x="555.566037735849" y="114.62264150943396" type="line"/>
      <point x="555.566037735849" y="119.74528301886792"/>
      <point x="555.566037735849" y="125.16037735849058"/>
      <point x="555.566037735849" y="130.99056603773585" type="curve" smooth="yes"/>
      <point x="555.566037735849" y="215.59433962264148"/>
      <point x="539.1981132075472" y="235.37735849056602"/>
      <point x="470.20754716981133" y="235.37735849056602" type="curve" smooth="yes"/>
    </contour>
  </outline>
</glyph>
<glyph name="B" format="2">
  <advance width="600.0"/>
  <unicode hex="0042"/>
  <outline>
    <contour>
      <point x="275.70754716981133" y="-10.0" type="curve"/>
      <point x="415.29245283018867" y="-10.0"/>
      <point x="528.2452830188679" y="60.735849056603776"/>
      <point x="528.2452830188679" y="190.68867924528303" type="curve" smooth="yes"/>
      <point x="528.2452830188679" y="199.95283018867923" type="line" smooth="yes"/>
      <point x="528.2452830188679" y="251.21698113207546"/>
      <point x="492.02830188679246" y="297.92452830188677"/>
      <point x="435.25471698113205" y="320.0" type="curve"/>
      <point x="435.25471698113205" y="337.5377358490566" type="line"/>
      <point x="236.22641509433961" y="349.3018867924528" type="line"/>
      <point x="236.22641509433961" y="322.5660377358491" type="line"/>
      <point x="286.58490566037733" y="322.5660377358491" type="line"/>
      <point x="376.8207547169811" y="299.2924528301887"/>
      <point x="407.49056603773585" y="264.1981132075472"/>
      <point x="407.49056603773585" y="217.17924528301887" type="curve" smooth="yes"/>
      <point x="407.49056603773585" y="207.4245283018868" type="line" smooth="yes"/>
      <point x="407.49056603773585" y="135.43396226415095"/>
      <point x="349.8679245283019" y="104.38679245283018"/>
      <point x="270.7547169811321" y="104.38679245283018" type="curve" smooth="yes"/>
      <point x="242.08490566037736" y="104.38679245283018"/>
      <point x="225.52830188679246" y="107.43396226415094"/>
      <point x="210.14150943396226" y="114.06603773584905" type="curve"/>
      <point x="210.14150943396226" y="243.75471698113208"/>
      <point x="210.14150943396226" y="370.9339622641509"/>
      <point x="210.14150943396226" y="496.52830188679246" type="curve" smooth="yes"/>
      <point x="210.14150943396226" y="537.5094339622642"/>
      <point x="201.06603773584902" y="568.2452830188679"/>
      <point x="180.57547169811318" y="588.1981132075472" type="curve"/>
      <point x="191.74528301886792" y="619.6132075471698" type="line"/>
      <point x="82.31132075471697" y="619.6132075471698" type="line"/>
      <point x="82.31132075471697" y="444.0660377358491"/>
      <point x="82.31132075471697" y="278.6132075471698"/>
      <point x="82.31132075471697" y="105.99056603773585" type="curve"/>
      <point x="82.31132075471697" y="81.79245283018868"/>
      <point x="90.97169811320754" y="63.179245283018865"/>
      <point x="109.58490566037734" y="44.56603773584906" type="curve" smooth="yes"/>
      <point x="138.1509433962264" y="16.0"/>
      <point x="194.71698113207546" y="-10.0"/>
    </contour>
    <contour>
      <point x="29.4811320754717" y="700.0" type="curve"/>
      <point x="26.650943396226417" y="687.0943396226415"/>
      <point x="25.235849056603776" y="673.8962264150944"/>
      <point x="25.235849056603776" y="656.7452830188679" type="curve" smooth="yes"/>
      <point x="25.235849056603776" y="604.1509433962265"/>
      <point x="36.4811320754717" y="579.2452830188679"/>
      <point x="64.26415094339623" y="579.2452830188679" type="curve" smooth="yes"/>
      <point x="84.67924528301887" y="579.2452830188679"/>
      <point x="170.14150943396226" y="599.2452830188679"/>
      <point x="278.6792452830189" y="599.2452830188679" type="curve" smooth="yes"/>
      <point x="329.3584905660377" y="599.2452830188679"/>
      <point x="368.52830188679246" y="594.3679245283018"/>
      <point x="399.9622641509434" y="581.688679245283" type="curve" smooth="yes"/>
      <point x="410.22641509433964" y="563.1792452830188"/>
      <point x="414.85849056603774" y="543.0377358490566"/>
      <point x="414.85849056603774" y="515.1415094339623" type="curve" smooth="yes"/>
      <point x="414.85849056603774" y="505.97169811320754" type="line" smooth="yes"/>
      <point x="414.85849056603774" y="418.566037735849"/>
      <point x="351.23584905660374" y="373.3301886792453"/>
      <point x="248.16037735849056" y="373.3301886792453" type="curve" smooth="yes"/>
      <point x="219.2830188679245" y="373.3301886792453"/>
      <point x="209.06603773584908" y="376.20754716981133"/>
      <point x="191.06603773584905" y="386.62264150943395" type="curve"/>
      <point x="191.06603773584905" y="296.0" type="line" smooth="yes"/>
      <point x="216.14150943396226" y="298.04716981132077" type="line"/>
      <point x="228.14150943396226" y="286.04716981132077"/>
      <point x="245.01886792452828" y="280.7547169811321"/>
      <point x="268.433962264151" y="280.7547169811321" type="curve" smooth="yes"/>
      <point x="416.91509433962267" y="280.7547169811321"/>
      <point x="535.6132075471697" y="369.49056603773585"/>
      <point x="535.6132075471697" y="504.8018867924529" type="curve" smooth="yes"/>
      <point x="535.6132075471697" y="516.1886792452831" type="line" smooth="yes"/>
      <point x="535.6132075471697" y="613.2075471698113"/>
      <point x="455.12264150943395" y="720.0"/>
      <point x="295.29245283018867" y="720.0" type="curve" smooth="yes"/>
      <point x="212.31132075471697" y="720.0"/>
      <point x="120.3301886792453" y="714.877358490566"/>
    </contour>
  </outline>
</glyph>
<glyph name="H" format="2">
  <advance width="600.0"/>
  <unicode hex="0048"/>
  <anchor x="286.58490566037733" y="711.0" name="top"/>
  <anchor x="304.41509433962267" y="0.0" name="bottom"/>
  <outline>
    <contour>
      <point x="68.14150943396227" y="700.5849056603773" type="curve"/>
      <point x="76.26415094339623" y="667.0"/>
      <point x="79.38679245283019" y="630.5849056603773"/>
      <point x="79.38679245283019" y="591.4622641509434" type="curve" smooth="yes"/>
      <point x="79.38679245283019" y="423.3490566037736"/>
      <point x="79.38679245283019" y="258.2830188679245"/>
      <point x="79.38679245283019" y="90.16981132075472" type="curve" smooth="yes"/>
      <point x="79.38679245283019" y="14.150943396226417"/>
      <point x="106.58490566037736" y="-7.1226415094339615"/>
      <point x="158.30188679245282" y="-7.1226415094339615" type="curve" smooth="yes"/>
      <point x="176.16037735849056" y="-7.1226415094339615"/>
      <point x="187.9433962264151" y="-5.0"/>
      <point x="204.38679245283018" y="-1.4622641509433967" type="curve"/>
      <point x="204.38679245283018" y="205.80188679245282"/>
      <point x="204.38679245283018" y="410.8490566037736"/>
      <point x="204.38679245283018" y="618.1132075471698" type="curve" smooth="yes"/>
      <point x="204.38679245283018" y="672.0943396226415"/>
      <point x="181.35849056603774" y="707.122641509434"/>
      <point x="120.51886792452831" y="707.122641509434" type="curve" smooth="yes"/>
      <point x="101.0754716981132" y="707.122641509434"/>
      <point x="86.1698113207547" y="704.7075471698113"/>
    </contour>
    <contour>
      <point x="32.31132075471698" y="370.75471698113205" type="line"/>
      <point x="32.31132075471698" y="350.14150943396226" type="line" smooth="yes"/>
      <point x="32.31132075471698" y="290.64150943396226"/>
      <point x="41.0188679245283" y="257.07547169811323"/>
      <point x="81.49056603773585" y="257.07547169811323" type="curve"/>
      <point x="434.15094339622635" y="257.07547169811323" type="line"/>
      <point x="434.1509433962264" y="360.4339622641509" type="line"/>
      <point x="400.90566037735846" y="345.4339622641509" type="line"/>
      <point x="379.12264150943395" y="363.2169811320755"/>
      <point x="349.50943396226415" y="370.75471698113205"/>
      <point x="312.0660377358491" y="370.75471698113205" type="curve"/>
    </contour>
    <contour>
      <point x="542.5660377358491" y="-0.5849056603773581" type="curve"/>
      <point x="534.4433962264152" y="35.12264150943396"/>
      <point x="531.3207547169812" y="71.5377358490566"/>
      <point x="531.3207547169812" y="110.66037735849056" type="curve" smooth="yes"/>
      <point x="531.3207547169812" y="292.21698113207543"/>
      <point x="531.3207547169812" y="472.8490566037736"/>
      <point x="531.3207547169812" y="626.1037735849056" type="curve" smooth="yes"/>
      <point x="531.3207547169812" y="690.8018867924528"/>
      <point x="503.4150943396227" y="707.122641509434"/>
      <point x="453.11320754716985" y="707.122641509434" type="curve" smooth="yes"/>
      <point x="435.9622641509434" y="707.122641509434"/>
      <point x="421.34905660377353" y="705.0"/>
      <point x="406.32075471698107" y="701.4622641509434" type="curve"/>
      <point x="406.32075471698107" y="494.0191523655896"/>
      <point x="406.32075471698107" y="296.9339622641509"/>
      <point x="406.32075471698107" y="94.62264150943396" type="curve" smooth="yes"/>
      <point x="406.32075471698107" y="26.150943396226417"/>
      <point x="438.0094339622641" y="-7.1226415094339615"/>
      <point x="490.18867924528297" y="-7.1226415094339615" type="curve" smooth="yes"/>
      <point x="509.6320754716981" y="-7.1226415094339615"/>
      <point x="524.5377358490566" y="-4.7075471698113205"/>
    </contour>
  </outline>
</glyph>
<glyph name="J" format="2">
  <advance width="600.0"/>
  <unicode hex="004A"/>
  <anchor x="300.53773584905656" y="711.0" name="top"/>
  <outline>
    <contour>
      <point x="273.3207547169811" y="100.75471698113208" type="curve" smooth="yes"/>
      <point x="204.34905660377356" y="100.75471698113208"/>
      <point x="155.6132075471698" y="116.29245283018867"/>
      <point x="99.78301886792454" y="156.04716981132074" type="curve"/>
      <point x="93.78301886792454" y="156.04716981132074" type="line"/>
      <point x="90.0754716981132" y="142.38679245283018"/>
      <point x="87.66037735849058" y="124.89622641509435"/>
      <point x="87.66037735849058" y="99.62264150943396" type="curve"/>
      <point x="87.66037735849058" y="62.688679245283026"/>
      <point x="96.9056603773585" y="40.367924528301884"/>
      <point x="114.81132075471699" y="22.462264150943394" type="curve"/>
      <point x="142.56603773584905" y="-5.292452830188678"/>
      <point x="199.3679245283019" y="-20.0"/>
      <point x="261.7830188679245" y="-20.0" type="curve" smooth="yes"/>
      <point x="423.27358490566036" y="-20.0"/>
      <point x="503.3018867924528" y="96.83962264150944"/>
      <point x="503.88679245283015" y="214.6792452830189" type="curve"/>
      <point x="503.88679245283015" y="362.5566037735849"/>
      <point x="503.88679245283015" y="510.01886792452837"/>
      <point x="503.88679245283015" y="632.4245283018868" type="curve"/>
      <point x="503.88679245283015" y="682.8018867924528"/>
      <point x="470.5377358490566" y="707.0754716981132"/>
      <point x="389.5943396226415" y="707.0754716981132" type="curve" smooth="yes"/>
      <point x="302.216981132099" y="707.0754716981132"/>
      <point x="215.1629416584198" y="704.5800710453302"/>
      <point x="128.63207547169813" y="700.0" type="curve"/>
      <point x="125.30633529632078" y="688.7804621243632"/>
      <point x="123.50943396226418" y="670.8962264150944"/>
      <point x="123.50943396226418" y="650.745283018868" type="curve" smooth="yes"/>
      <point x="123.50943396226418" y="598.4905660377359"/>
      <point x="144.12264150943395" y="572.1698113207548"/>
      <point x="184.85849056603774" y="572.1698113207548" type="curve" smooth="yes"/>
      <point x="247.0943396226415" y="572.1698113207548"/>
      <point x="318.5" y="582.7830188679245"/>
      <point x="401.81132075471703" y="606.1320754716982" type="curve"/>
      <point x="351.9056603773585" y="609.5188679245283" type="line"/>
      <point x="399.96226415094344" y="582.6886792452831" type="line"/>
      <point x="376.7641509433962" y="625.5188679245283" type="line"/>
      <point x="376.7641509433962" y="475.5188679245283"/>
      <point x="376.7641509433962" y="350.99056603773585"/>
      <point x="376.7641509433962" y="230.0" type="curve"/>
      <point x="376.7641509433962" y="182.25471698113208"/>
      <point x="373.4245283018868" y="151.7452830188679"/>
      <point x="363.16037735849056" y="122.94339622641509" type="curve" smooth="yes"/>
      <point x="337.4811320754717" y="107.50943396226414"/>
      <point x="308.4622641509434" y="100.75471698113208"/>
    </contour>
  </outline>
</glyph>
<glyph name="N" format="2">
  <advance width="600.0"/>
  <unicode hex="004E"/>
  <anchor x="300.0" y="711.7075471698114" name="top"/>
  <anchor x="297.41509433962267" y="-1.0" name="bottom"/>
  <outline>
    <contour>
      <point x="190.14150943396226" y="-1.1698113207547172" type="curve"/>
      <point x="190.14150943396226" y="33.12264150943396"/>
      <point x="190.14150943396226" y="65.83018867924528"/>
      <point x="190.14150943396226" y="100.12264150943395" type="curve"/>
      <point x="190.14150943396226" y="244.74528301886795"/>
      <point x="188.18867924528303" y="395.0566037735849"/>
      <point x="169.69811320754718" y="541.5188679245283" type="curve"/>
      <point x="149.91509433962264" y="511.2264150943397" type="line"/>
      <point x="203.6792452830189" y="511.2264150943397" type="line"/>
      <point x="172.40566037735852" y="540.2264150943396" type="line"/>
      <point x="236.77358490566039" y="277.92452830188677"/>
      <point x="336.5566037735849" y="97.31132075471699"/>
      <point x="407.0566037735849" y="26.81132075471698" type="curve" smooth="yes"/>
      <point x="434.62264150943395" y="-0.7547169811320757"/>
      <point x="465.0660377358491" y="-10.0"/>
      <point x="494.5094339622641" y="-10.0" type="curve" smooth="yes"/>
      <point x="509.7075471698114" y="-10.0"/>
      <point x="523.9056603773585" y="-6.877358490566038"/>
      <point x="539.1037735849056" y="-2.047169811320755" type="curve"/>
      <point x="532.7358490566037" y="33.83018867924528"/>
      <point x="530.6132075471697" y="71.0"/>
      <point x="530.6132075471697" y="107.4622641509434" type="curve"/>
      <point x="530.6132075471697" y="283.89622641509436"/>
      <point x="530.6132075471697" y="460.3301886792453"/>
      <point x="530.6132075471697" y="631.1037735849056" type="curve"/>
      <point x="530.6132075471697" y="686.6037735849056"/>
      <point x="499.877358490566" y="708.5849056603773"/>
      <point x="457.35849056603774" y="708.5849056603773" type="curve"/>
      <point x="438.79245283018867" y="708.5849056603773"/>
      <point x="424.88679245283015" y="706.4622641509434"/>
      <point x="416.933962264151" y="702.9245283018868" type="curve"/>
      <point x="416.933962264151" y="643.324856439717"/>
      <point x="416.933962264151" y="585.0943396226415"/>
      <point x="416.933962264151" y="524.9716981132076" type="curve"/>
      <point x="416.933962264151" y="389.27358490566036"/>
      <point x="419.2497561585613" y="286.1997458167925"/>
      <point x="436.7452830188679" y="150.47169811320757" type="curve"/>
      <point x="461.52830188679246" y="173.7641509433962" type="line"/>
      <point x="401.1792452830189" y="173.7641509433962" type="line"/>
      <point x="439.83962264150944" y="153.47169811320754" type="line"/>
      <point x="331.30023629523583" y="327.833922088349"/>
      <point x="279.15316057066036" y="468.81249280530653"/>
      <point x="246.50943396226415" y="623.7735849056603" type="curve" smooth="yes"/>
      <point x="234.21698113207543" y="686.2641509433963"/>
      <point x="189.33018867924525" y="708.5849056603773"/>
      <point x="125.6132075471698" y="708.5849056603773" type="curve" smooth="yes"/>
      <point x="104.12264150943399" y="708.5849056603773"/>
      <point x="88.58490566037736" y="707.5849056603773"/>
      <point x="65.21698113207547" y="702.0471698113207" type="curve"/>
      <point x="73.33962264150944" y="666.3396226415094"/>
      <point x="76.4622641509434" y="627.6603773584906"/>
      <point x="76.4622641509434" y="592.9245283018868" type="curve"/>
      <point x="76.4622641509434" y="421.9811320754717"/>
      <point x="76.4622641509434" y="251.62264150943398"/>
      <point x="76.4622641509434" y="80.67924528301886" type="curve"/>
      <point x="76.4622641509434" y="21.641509433962263"/>
      <point x="101.5377358490566" y="-6.7075471698113205"/>
      <point x="150.7924528301887" y="-6.7075471698113205" type="curve"/>
      <point x="168.11320754716982" y="-6.7075471698113205"/>
      <point x="179.77358490566039" y="-4.2924528301886795"/>
    </contour>
  </outline>
</glyph>
<glyph name="f" format="2">
  <advance width="600.0"/>
  <unicode hex="0066"/>
  <outline>
    <contour>
      <point x="416.3679245283019" y="767.0754716981132" type="curve"/>
      <point x="268.4150943396226" y="767.0754716981132"/>
      <point x="189.38679245283018" y="678.311320754717"/>
      <point x="189.38679245283018" y="538.7358490566038" type="curve" smooth="yes"/>
      <point x="189.38679245283018" y="390.5943396226415"/>
      <point x="189.38679245283018" y="242.74528301886792"/>
      <point x="189.38679245283018" y="94.60377358490564" type="curve"/>
      <point x="291.99056603773585" y="94.60377358490564" type="line"/>
      <point x="277.9150943396226" y="124.75471698113208" type="line"/>
      <point x="299.066037735849" y="145.78301886792454"/>
      <point x="310.14150943396226" y="179.88679245283018"/>
      <point x="310.14150943396226" y="227.77358490566036" type="curve" smooth="yes"/>
      <point x="310.14150943396226" y="322.49056603773585"/>
      <point x="310.14150943396226" y="418.20754716981133"/>
      <point x="310.14150943396226" y="512.9245283018868" type="curve" smooth="yes"/>
      <point x="303.77358490566036" y="560.3301886792452"/>
      <point x="300.45283018867923" y="604.1320754716982"/>
      <point x="305.4245283018868" y="638.0849056603774" type="curve" smooth="yes"/>
      <point x="334.5943396226415" y="648.3490566037736"/>
      <point x="365.51886792452837" y="651.9811320754717"/>
      <point x="402.9245283018868" y="651.9811320754717" type="curve"/>
      <point x="468.1509433962264" y="651.9811320754717"/>
      <point x="527.4716981132075" y="639.9811320754717"/>
      <point x="558.6886792452831" y="624.0566037735849" type="curve"/>
      <point x="564.6886792452831" y="624.0566037735849" type="line"/>
      <point x="568.8113207547169" y="637.5471698113207"/>
      <point x="569.1037735849056" y="654.3301886792453"/>
      <point x="569.1037735849056" y="669.1132075471698" type="curve"/>
      <point x="569.1037735849056" y="696.7264150943397"/>
      <point x="563.9811320754717" y="719.5849056603773"/>
      <point x="549.1981132075472" y="734.367924528302" type="curve" smooth="yes"/>
      <point x="530.3679245283018" y="753.1981132075472"/>
      <point x="488.15094339622647" y="767.0754716981132"/>
    </contour>
    <contour>
      <point x="50.9433962264151" y="514.6792452830189" type="line"/>
      <point x="50.9433962264151" y="509.5566037735849"/>
      <point x="50.9433962264151" y="504.14150943396226"/>
      <point x="50.9433962264151" y="498.3113207547169" type="curve" smooth="yes"/>
      <point x="50.9433962264151" y="421.12264150943395"/>
      <point x="87.0754716981132" y="393.92452830188677"/>
      <point x="217.5754716981132" y="393.92452830188677" type="curve" smooth="yes"/>
      <point x="531.8396226415094" y="393.92452830188677" type="line"/>
      <point x="534.6698113207548" y="406.8301886792453"/>
      <point x="536.7924528301887" y="424.27358490566036"/>
      <point x="536.7924528301887" y="441.4245283018868" type="curve" smooth="yes"/>
      <point x="536.7924528301887" y="494.5566037735849"/>
      <point x="518.3490566037736" y="514.6792452830189"/>
      <point x="457.1886792452831" y="514.6792452830189" type="curve"/>
    </contour>
    <contour>
      <point x="53.801886792452834" y="120.75471698113208" type="line"/>
      <point x="53.216981132075475" y="115.33962264150944"/>
      <point x="52.924528301886795" y="109.63207547169812"/>
      <point x="52.924528301886795" y="102.63207547169812" type="curve" smooth="yes"/>
      <point x="52.924528301886795" y="23.49056603773585"/>
      <point x="67.83018867924528" y="0.0"/>
      <point x="137.11320754716982" y="0.0" type="curve" smooth="yes"/>
      <point x="507.1037735849057" y="0.0" type="line"/>
      <point x="510.933962264151" y="10.490566037735848"/>
      <point x="512.6415094339623" y="20.566037735849058"/>
      <point x="512.6415094339623" y="32.76415094339623" type="curve" smooth="yes"/>
      <point x="512.6415094339623" y="84.06603773584906"/>
      <point x="443.48113207547175" y="120.75471698113208"/>
      <point x="301.83962264150944" y="120.75471698113208" type="curve"/>
    </contour>
  </outline>
</glyph>
<glyph name="m" format="2">
  <advance width="600.0"/>
  <unicode hex="006D"/>
  <anchor x="315.12264150943395" y="0.0" name="bottom"/>
  <outline>
    <contour>
      <point x="575.1509433962264" y="0.0" type="curve"/>
      <point x="561.1981132075471" y="54.32075471698113"/>
      <point x="557.0754716981131" y="89.73584905660377"/>
      <point x="557.0754716981131" y="148.76415094339623" type="curve" smooth="yes"/>
      <point x="557.0754716981131" y="242.56603773584905"/>
      <point x="557.0754716981131" y="335.3679245283019"/>
      <point x="557.0754716981131" y="429.1698113207548" type="curve" smooth="yes"/>
      <point x="557.0754716981131" y="477.6792452830188"/>
      <point x="511.8018867924528" y="547.3207547169811"/>
      <point x="462.41509433962267" y="547.3207547169811" type="curve" smooth="yes"/>
      <point x="419.7830188679245" y="547.3207547169811"/>
      <point x="373.3207547169811" y="501.95283018867923"/>
      <point x="343.02830188679246" y="441.5377358490566" type="curve"/>
      <point x="326.39622641509436" y="441.5377358490566" type="line"/>
      <point x="326.39622641509436" y="308.0188679245283" type="line"/>
      <point x="349.7075471698113" y="379.377358490566"/>
      <point x="386.60377358490564" y="423.02830188679246"/>
      <point x="426.6981132075471" y="423.02830188679246" type="curve" smooth="yes"/>
      <point x="440.4245283018868" y="423.02830188679246"/>
      <point x="448.7641509433962" y="417.3490566037736"/>
      <point x="454.6415094339623" y="405.4056603773585" type="curve"/>
      <point x="441.2735849056604" y="294.50943396226415"/>
      <point x="435.7358490566038" y="208.50943396226415"/>
      <point x="435.7358490566038" y="126.36792452830188" type="curve" smooth="yes"/>
      <point x="435.7358490566038" y="19.952830188679247"/>
      <point x="462.85849056603774" y="-4.830188679245283"/>
      <point x="529.433962264151" y="-4.830188679245283" type="curve" smooth="yes"/>
      <point x="546.9245283018869" y="-4.830188679245283"/>
      <point x="560.122641509434" y="-3.1226415094339623"/>
    </contour>
    <contour>
      <point x="337.3207547169812" y="0.0" type="curve"/>
      <point x="338.02830188679246" y="145.41509433962264"/>
      <point x="338.02830188679246" y="290.83018867924534"/>
      <point x="337.3207547169812" y="436.24528301886795" type="curve" smooth="yes"/>
      <point x="337.3207547169812" y="472.87735849056605"/>
      <point x="311.4433962264151" y="545.9056603773585"/>
      <point x="262.42452830188677" y="545.9056603773585" type="curve" smooth="yes"/>
      <point x="222.33018867924528" y="545.9056603773585"/>
      <point x="185.40566037735852" y="505.7547169811321"/>
      <point x="160.4811320754717" y="439.7830188679245" type="curve"/>
      <point x="143.72641509433964" y="439.7830188679245" type="line"/>
      <point x="146.55660377358492" y="304.8018867924529" type="line"/>
      <point x="178.62264150943398" y="388.61320754716985"/>
      <point x="207.5943396226415" y="423.02830188679246"/>
      <point x="241.85849056603772" y="423.02830188679246" type="curve" smooth="yes"/>
      <point x="256.1698113207547" y="423.02830188679246"/>
      <point x="265.09433962264154" y="417.2264150943396"/>
      <point x="271.97169811320754" y="402.74528301886795" type="curve" smooth="yes"/>
      <point x="259.0188679245283" y="272.8679245283019"/>
      <point x="254.89622641509436" y="187.99056603773585"/>
      <point x="254.89622641509436" y="101.60377358490567" type="curve" smooth="yes"/>
      <point x="254.89622641509436" y="24.198113207547166"/>
      <point x="276.433962264151" y="-2.9999999999999996"/>
      <point x="320.4905660377358" y="-2.9999999999999996" type="curve" smooth="yes"/>
      <point x="327.90566037735846" y="-2.9999999999999996"/>
      <point x="332.61320754716985" y="-1.9999999999999998"/>
    </contour>
    <contour>
      <point x="156.6037735849057" y="-1.4622641509433967" type="curve"/>
      <point x="156.6037735849057" y="140.0943396226415"/>
      <point x="156.6037735849057" y="282.0660377358491"/>
      <point x="156.6037735849057" y="423.62264150943395" type="curve"/>
      <point x="156.6037735849057" y="504.0471698113207"/>
      <point x="111.91745283018868" y="541.9056603773585"/>
      <point x="64.9056603773585" y="541.9056603773585" type="curve"/>
      <point x="53.5377358490566" y="541.9056603773585"/>
      <point x="41.87735849056604" y="540.9056603773585"/>
      <point x="30.50943396226415" y="538.1981132075472" type="curve"/>
      <point x="39.509433962264154" y="504.8301886792453"/>
      <point x="42.924528301886795" y="479.0943396226415"/>
      <point x="42.924528301886795" y="437.7547169811321" type="curve" smooth="yes"/>
      <point x="42.924528301886795" y="306.66037735849056"/>
      <point x="42.924528301886795" y="175.98113207547172"/>
      <point x="42.924528301886795" y="44.88679245283019" type="curve" smooth="yes"/>
      <point x="42.924528301886795" y="1.4150943396226419"/>
      <point x="65.87735849056604" y="-5.7075471698113205"/>
      <point x="112.64150943396227" y="-5.7075471698113205" type="curve" smooth="yes"/>
      <point x="129.79245283018867" y="-5.7075471698113205"/>
      <point x="145.11320754716982" y="-4.2924528301886795"/>
    </contour>
  </outline>
</glyph>
<glyph name="t" format="2">
  <advance width="600.0"/>
  <unicode hex="0074"/>
  <anchor x="370.15094339622635" y="-1.0" name="bottom"/>
  <anchor x="459.7641509433962" y="700.0" name="caronslovak"/>
  <anchor x="236.73584905660377" y="660.0283018867924" name="top"/>
  <outline>
    <contour>
      <point x="49.26415094339623" y="535.9056603773585" type="line"/>
      <point x="47.55660377358491" y="530.0754716981132"/>
      <point x="46.55660377358491" y="521.8301886792452"/>
      <point x="46.55660377358491" y="513.0" type="curve" smooth="yes"/>
      <point x="46.55660377358491" y="445.0094339622641"/>
      <point x="79.4622641509434" y="415.1509433962264"/>
      <point x="195.35849056603774" y="415.1509433962264" type="curve"/>
      <point x="539.1509433962265" y="415.1509433962264" type="line"/>
      <point x="541.9811320754717" y="428.05660377358487"/>
      <point x="544.1037735849056" y="445.5"/>
      <point x="544.1037735849056" y="462.65094339622647" type="curve" smooth="yes"/>
      <point x="544.1037735849056" y="516.6603773584906"/>
      <point x="528.8584905660377" y="535.9056603773585"/>
      <point x="483.97169811320754" y="535.9056603773585" type="curve"/>
    </contour>
    <contour>
      <point x="538.688679245283" y="147.4056603773585" type="curve"/>
      <point x="532.6886792452832" y="147.4056603773585" type="line"/>
      <point x="481.8113207547169" y="116.33962264150944"/>
      <point x="443.5188679245283" y="106.41509433962264"/>
      <point x="376.2264150943396" y="106.41509433962264" type="curve" smooth="yes"/>
      <point x="350.25471698113205" y="106.41509433962264"/>
      <point x="328.45283018867923" y="110.75471698113206"/>
      <point x="309.4056603773585" y="121.18867924528303" type="curve" smooth="yes"/>
      <point x="304.6509433962264" y="135.5754716981132"/>
      <point x="303.0660377358491" y="151.54716981132074"/>
      <point x="303.0660377358491" y="171.9056603773585" type="curve"/>
      <point x="303.0660377358491" y="319.7075471698113"/>
      <point x="303.0660377358491" y="467.2169811320755"/>
      <point x="303.0660377358491" y="615.0188679245283" type="curve" smooth="yes"/>
      <point x="303.0660377358491" y="679.7547169811321"/>
      <point x="268.0849056603774" y="707.9528301886793"/>
      <point x="225.27358490566039" y="707.9528301886793" type="curve" smooth="yes"/>
      <point x="207.5377358490566" y="707.9528301886793"/>
      <point x="189.50943396226415" y="704.8301886792453"/>
      <point x="170.18867924528303" y="700.0" type="curve"/>
      <point x="179.31132075471697" y="672.2169811320755"/>
      <point x="182.31132075471697" y="642.2169811320755"/>
      <point x="182.31132075471697" y="608.5849056603773" type="curve" smooth="yes"/>
      <point x="182.31132075471697" y="458.53773584905656"/>
      <point x="182.31132075471697" y="307.4905660377358"/>
      <point x="182.31132075471697" y="157.4433962264151" type="curve" smooth="yes"/>
      <point x="182.31132075471697" y="53.44339622641508"/>
      <point x="262.7830188679245" y="-13.169811320754718"/>
      <point x="382.688679245283" y="-13.169811320754718" type="curve" smooth="yes"/>
      <point x="445.2264150943396" y="-13.169811320754718"/>
      <point x="486.4905660377359" y="1.1698113207547172"/>
      <point x="508.1981132075472" y="22.877358490566035" type="curve" smooth="yes"/>
      <point x="531.3207547169811" y="46.0"/>
      <point x="542.1037735849058" y="75.02830188679245"/>
      <point x="542.1037735849058" y="115.83962264150944" type="curve" smooth="yes"/>
      <point x="542.1037735849058" y="125.79245283018867"/>
      <point x="541.1037735849058" y="136.74528301886792"/>
    </contour>
  </outline>
</glyph>
<glyph name="ordmasculine" format="2">
  <advance width="600.0"/>
  <unicode hex="00BA"/>
  <outline>
    <contour>
      <point x="302.5377358490566" y="762.2924528301886" type="curve" smooth="yes"/>
      <point x="185.04716981132077" y="762.2924528301886"/>
      <point x="101.4622641509434" y="663.5849056603773"/>
      <point x="101.4622641509434" y="513.9056603773585" type="curve" smooth="yes"/>
      <point x="101.4622641509434" y="501.6603773584905" type="line" smooth="yes"/>
      <point x="101.4622641509434" y="356.04716981132077"/>
      <point x="187.3679245283019" y="285.122641509434"/>
      <point x="296.16981132075466" y="285.122641509434" type="curve" smooth="yes"/>
      <point x="416.58490566037733" y="285.122641509434"/>
      <point x="498.53773584905656" y="369.49056603773585"/>
      <point x="498.53773584905656" y="501.12264150943395" type="curve" smooth="yes"/>
      <point x="498.53773584905656" y="513.3679245283018" type="line" smooth="yes"/>
      <point x="498.53773584905656" y="677.910483388399"/>
      <point x="409.17503327645755" y="762.2924528301886"/>
    </contour>
    <contour>
      <point x="299.87735849056605" y="671.9622641509434" type="curve" smooth="yes"/>
      <point x="320.66037735849056" y="671.9622641509434"/>
      <point x="336.1981132075472" y="669.5471698113207"/>
      <point x="350.3207547169811" y="664.0094339622642" type="curve"/>
      <point x="379.16037735849056" y="635.6698113207547"/>
      <point x="393.3490566037736" y="584.9716981132076"/>
      <point x="393.3490566037736" y="516.3207547169811" type="curve" smooth="yes"/>
      <point x="393.3490566037736" y="507.4905660377359" type="line" smooth="yes"/>
      <point x="393.3490566037736" y="420.9811320754717"/>
      <point x="361.5" y="377.57547169811323"/>
      <point x="292.4622641509434" y="377.57547169811323" type="curve" smooth="yes"/>
      <point x="267.8301886792453" y="377.57547169811323"/>
      <point x="248.19811320754718" y="383.62264150943395"/>
      <point x="229.27358490566036" y="391.377358490566" type="curve"/>
      <point x="211.16037735849056" y="417.3490566037736"/>
      <point x="204.52830188679246" y="452.24528301886795"/>
      <point x="204.52830188679246" y="493.7547169811321" type="curve" smooth="yes"/>
      <point x="204.52830188679246" y="501.1698113207547" type="line" smooth="yes"/>
      <point x="204.52830188679246" y="613.1698113207548"/>
      <point x="235.96226415094338" y="671.9622641509434"/>
    </contour>
  </outline>
</glyph>
<glyph name="AE" format="2">
  <advance width="600.0"/>
  <unicode hex="00C6"/>
  <anchor x="357.7830188679245" y="711.0" name="top"/>
  <outline>
    <contour>
      <point x="142.26415094339623" y="0.07547169811320664" type="curve"/>
      <point x="150.04716981132077" y="299.64150943396226"/>
      <point x="189.82075471698116" y="470.8962264150943"/>
      <point x="267.87735849056605" y="605.6603773584906" type="curve"/>
      <point x="223.70754716981136" y="579.2452830188679" type="line"/>
      <point x="579.122641509434" y="579.2452830188679" type="line"/>
      <point x="581.8301886792453" y="590.6132075471697"/>
      <point x="584.9528301886793" y="612.8867924528303"/>
      <point x="584.9528301886793" y="628.7924528301886" type="curve" smooth="yes"/>
      <point x="584.9528301886793" y="679.0471698113208"/>
      <point x="563.3867924528302" y="704.4150943396227"/>
      <point x="511.83962264150944" y="704.4150943396227" type="curve"/>
      <point x="306.1509433962264" y="704.4150943396227" type="line"/>
      <point x="247.9245283018868" y="704.4150943396227"/>
      <point x="213.94339622641508" y="699.5849056603773"/>
      <point x="192.45283018867923" y="687.9245283018869" type="curve"/>
      <point x="89.83018867924528" y="542.622641509434"/>
      <point x="32.12264150943396" y="323.1320754716981"/>
      <point x="32.12264150943396" y="47.66981132075472" type="curve" smooth="yes"/>
      <point x="32.12264150943396" y="9.150943396226415"/>
      <point x="55.075471698113205" y="-6.462264150943397"/>
      <point x="99.62264150943395" y="-6.462264150943397" type="curve" smooth="yes"/>
      <point x="116.1132075471698" y="-6.462264150943397"/>
      <point x="129.18867924528303" y="-4.047169811320756"/>
    </contour>
    <contour>
      <point x="270.58490566037733" y="608.9528301886793" type="line"/>
      <point x="314.45283018867923" y="411.97169811320754"/>
      <point x="323.2075471698113" y="221.36792452830187"/>
      <point x="323.2075471698113" y="44.15094339622642" type="curve" smooth="yes"/>
      <point x="323.2075471698113" y="15.783018867924527"/>
      <point x="353.23584905660374" y="0.0"/>
      <point x="398.2452830188679" y="0.0" type="curve" smooth="yes"/>
      <point x="580.122641509434" y="0.0" type="line"/>
      <point x="583.2452830188679" y="11.49056603773585"/>
      <point x="584.9528301886793" y="27.9811320754717"/>
      <point x="584.9528301886793" y="45.71698113207546" type="curve" smooth="yes"/>
      <point x="584.9528301886793" y="101.5566037735849"/>
      <point x="566.3396226415094" y="120.75471698113206"/>
      <point x="510.5" y="120.75471698113206" type="curve" smooth="yes"/>
      <point x="436.88679245283015" y="120.75471698113206" type="line"/>
      <point x="434.88679245283015" y="278.4056603773585"/>
      <point x="423.377358490566" y="389.81132075471703"/>
      <point x="403.311320754717" y="500.86792452830196" type="curve" smooth="yes"/>
      <point x="396.8962264150943" y="547.877358490566"/>
      <point x="391.18867924528297" y="560.4150943396227"/>
      <point x="370.2830188679245" y="573.8301886792453" type="curve"/>
      <point x="379.8679245283019" y="601.0754716981131" type="line"/>
    </contour>
    <contour>
      <point x="13.537735849056606" y="298.3018867924528" type="line"/>
      <point x="13.537735849056606" y="277.688679245283" type="line"/>
      <point x="13.537735849056606" y="216.77358490566039"/>
      <point x="25.613207547169814" y="184.62264150943395"/>
      <point x="52.811320754716974" y="184.62264150943395" type="curve"/>
      <point x="342.9905660377359" y="184.62264150943395" type="line"/>
      <point x="342.99056603773585" y="287.811320754717" type="line"/>
      <point x="311.7924528301887" y="273.688679245283" type="line"/>
      <point x="294.6698113207547" y="289.64150943396226"/>
      <point x="263.3490566037736" y="298.3018867924528"/>
      <point x="228.61320754716985" y="298.3018867924528" type="curve"/>
    </contour>
    <contour>
      <point x="382.53773584905656" y="357.5" type="line"/>
      <point x="382.53773584905656" y="248.77358490566039" type="line"/>
      <point x="553.4622641509434" y="248.77358490566039" type="line"/>
      <point x="556.1698113207548" y="258.433962264151"/>
      <point x="557.877358490566" y="271.92452830188677"/>
      <point x="557.877358490566" y="284.70754716981133" type="curve" smooth="yes"/>
      <point x="557.877358490566" y="328.3490566037736"/>
      <point x="533.188679245283" y="357.5"/>
      <point x="500.9150943396226" y="357.5" type="curve"/>
    </contour>
  </outline>
</glyph>
<glyph name="oe" format="2">
  <advance width="600.0"/>
  <unicode hex="0153"/>
  <outline>
    <contour>
      <point x="188.1698113207547" y="547.3207547169811" type="curve" smooth="yes"/>
      <point x="83.9433962264151" y="547.3207547169811"/>
      <point x="20.849056603773583" y="428.70754716981133"/>
      <point x="20.849056603773583" y="238.9056603773585" type="curve" smooth="yes"/>
      <point x="20.849056603773583" y="218.61320754716982" type="line" smooth="yes"/>
      <point x="20.849056603773583" y="72.83018867924528"/>
      <point x="79.09433962264151" y="-11.415094339622641"/>
      <point x="180.95283018867926" y="-11.415094339622641" type="curve" smooth="yes"/>
      <point x="237.12264150943395" y="-11.415094339622641"/>
      <point x="283.5849056603774" y="28.849056603773587"/>
      <point x="309.2452830188679" y="93.5754716981132" type="curve"/>
      <point x="290.4622641509434" y="93.5754716981132" type="line"/>
      <point x="316.122641509434" y="28.26415094339623"/>
      <point x="366.7075471698113" y="-11.415094339622641"/>
      <point x="440.1698113207548" y="-11.415094339622641" type="curve" smooth="yes"/>
      <point x="493.38679245283015" y="-11.415094339622641"/>
      <point x="536.0" y="-1.9528301886792452"/>
      <point x="556.8301886792452" y="16.754716981132077" type="curve" smooth="yes"/>
      <point x="564.8301886792453" y="24.047169811320757"/>
      <point x="577.3207547169811" y="37.75471698113208"/>
      <point x="577.3207547169811" y="73.68867924528303" type="curve"/>
      <point x="577.3207547169811" y="91.30188679245283"/>
      <point x="575.6132075471697" y="103.96226415094338"/>
      <point x="571.4905660377359" y="118.16037735849056" type="curve"/>
      <point x="567.4905660377359" y="118.16037735849056" type="line"/>
      <point x="530.9999999999999" y="95.69811320754717"/>
      <point x="497.75471698113205" y="86.52830188679246"/>
      <point x="444.7075471698113" y="86.52830188679246" type="curve" smooth="yes"/>
      <point x="421.5849056603774" y="86.52830188679246"/>
      <point x="403.877358490566" y="89.23584905660377"/>
      <point x="387.16981132075466" y="96.94339622641509" type="curve" smooth="yes"/>
      <point x="364.1509433962264" y="124.11320754716981"/>
      <point x="349.7641509433962" y="165.42452830188677"/>
      <point x="349.7641509433962" y="217.66037735849056" type="curve"/>
      <point x="349.7641509433962" y="302.8301886792453" type="line" smooth="yes"/>
      <point x="349.7641509433962" y="411.33962264150944"/>
      <point x="375.02830188679246" y="448.6698113207547"/>
      <point x="424.9245283018868" y="448.6698113207547" type="curve" smooth="yes"/>
      <point x="438.0943396226415" y="448.6698113207547"/>
      <point x="449.09433962264154" y="446.6698113207547"/>
      <point x="459.8018867924528" y="441.9622641509434" type="curve" smooth="yes"/>
      <point x="474.40566037735846" y="422.622641509434"/>
      <point x="479.62264150943395" y="394.188679245283"/>
      <point x="479.62264150943395" y="365.04716981132077" type="curve" smooth="yes"/>
      <point x="479.62264150943395" y="356.63207547169804" type="line"/>
      <point x="479.62264150943395" y="304.9339622641509"/>
      <point x="459.5283018867925" y="284.66981132075466"/>
      <point x="415.1698113207547" y="284.66981132075466" type="curve" smooth="yes"/>
      <point x="378.6603773584906" y="284.66981132075466"/>
      <point x="356.44339622641513" y="287.9622641509434"/>
      <point x="319.933962264151" y="300.83962264150944" type="curve"/>
      <point x="319.933962264151" y="230.83018867924528" type="line"/>
      <point x="334.05660377358487" y="230.83018867924528" type="line"/>
      <point x="347.59433962264154" y="217.2924528301887"/>
      <point x="377.933962264151" y="207.24528301886792"/>
      <point x="427.7547169811321" y="207.24528301886792" type="curve" smooth="yes"/>
      <point x="523.0754716981132" y="207.24528301886792"/>
      <point x="579.1509433962265" y="256.21698113207543"/>
      <point x="579.1509433962265" y="352.21698113207543" type="curve" smooth="yes"/>
      <point x="579.1509433962265" y="365.2169811320755" type="line" smooth="yes"/>
      <point x="579.1509433962265" y="475.1981132075471"/>
      <point x="511.1698113207547" y="547.3207547169811"/>
      <point x="423.3867924528302" y="547.3207547169811" type="curve" smooth="yes"/>
      <point x="363.6320754716981" y="547.3207547169811"/>
      <point x="317.70754716981133" y="508.5943396226415"/>
      <point x="293.1698113207547" y="438.2830188679245" type="curve"/>
      <point x="308.0" y="438.28301886792457" type="line"/>
      <point x="284.21698113207543" y="509.0094339622641"/>
      <point x="242.50943396226415" y="547.3207547169811"/>
    </contour>
    <contour>
      <point x="120.37735849056602" y="221.49056603773585" type="curve" smooth="yes"/>
      <point x="120.37735849056602" y="236.19811320754718" type="line" smooth="yes"/>
      <point x="120.37735849056602" y="389.46226415094344"/>
      <point x="149.98113207547172" y="448.6698113207548"/>
      <point x="191.41509433962264" y="448.6698113207548" type="curve" smooth="yes"/>
      <point x="201.5377358490566" y="448.6698113207548"/>
      <point x="209.95283018867926" y="446.9622641509434"/>
      <point x="216.6603773584906" y="443.83962264150944" type="curve" smooth="yes"/>
      <point x="238.97169811320757" y="413.59433962264154"/>
      <point x="250.23584905660377" y="356.8396226415094"/>
      <point x="250.23584905660377" y="264.91509433962267" type="curve" smooth="yes"/>
      <point x="250.23584905660377" y="228.93396226415092" type="line" smooth="yes"/>
      <point x="250.23584905660377" y="130.9056603773585"/>
      <point x="228.3867924528302" y="87.23584905660378"/>
      <point x="182.5377358490566" y="87.23584905660378" type="curve" smooth="yes"/>
      <point x="170.0754716981132" y="87.23584905660378"/>
      <point x="159.19811320754715" y="89.23584905660377"/>
      <point x="149.02830188679243" y="95.23584905660377" type="curve"/>
      <point x="130.00943396226418" y="121.4056603773585"/>
      <point x="120.37735849056602" y="163.54716981132074"/>
    </contour>
  </outline>
</glyph>
<glyph name="Germandbls" format="2">
  <advance width="600.0"/>
  <unicode hex="1E9E"/>
  <outline>
    <contour>
      <point x="209.01886792452828" y="-1.1698113207547172" type="curve"/>
      <point x="202.5566037735849" y="27.245283018867926"/>
      <point x="200.14150943396226" y="56.056603773584904"/>
      <point x="200.14150943396226" y="91.32075471698113" type="curve"/>
      <point x="200.14150943396226" y="223.76415094337264"/>
      <point x="200.14150943396226" y="356.79245283021226"/>
      <point x="200.14150943396226" y="489.23584905660374" type="curve"/>
      <point x="200.14150943396226" y="528.9716981132075"/>
      <point x="189.06603773584905" y="559.122641509434"/>
      <point x="169.16037735849056" y="573.8301886792453" type="curve"/>
      <point x="180.62264150943395" y="606.367924528302" type="line"/>
      <point x="72.31132075471697" y="606.367924528302" type="line"/>
      <point x="72.31132075471697" y="437.1132075471698"/>
      <point x="72.31132075471697" y="267.27358490566036"/>
      <point x="72.31132075471697" y="98.01886792452831" type="curve" smooth="yes"/>
      <point x="72.31132075471697" y="23.858490566037737"/>
      <point x="97.67924528301886" y="-6.2924528301886795"/>
      <point x="156.5188679245283" y="-6.2924528301886795" type="curve" smooth="yes"/>
      <point x="174.83962264150944" y="-6.2924528301886795"/>
      <point x="191.5754716981132" y="-4.584905660377359"/>
    </contour>
    <contour>
      <point x="393.44339622641513" y="115.0" type="curve" smooth="yes"/>
      <point x="348.96226415094344" y="115.0"/>
      <point x="319.13207547169816" y="123.4622641509434"/>
      <point x="286.16037735849056" y="145.9433962264151" type="curve"/>
      <point x="282.16037735849056" y="145.9433962264151" type="line"/>
      <point x="276.9150943396226" y="132.03773584905662"/>
      <point x="274.5" y="115.4245283018868"/>
      <point x="274.5" y="94.81132075471697" type="curve" smooth="yes"/>
      <point x="274.5" y="58.87735849056604"/>
      <point x="283.57547169811323" y="32.679245283018865"/>
      <point x="298.4056603773585" y="17.849056603773583" type="curve" smooth="yes"/>
      <point x="315.45283018867923" y="0.5094339622641519"/>
      <point x="347.42452830188677" y="-11.415094339622641"/>
      <point x="395.5660377358491" y="-11.415094339622641" type="curve" smooth="yes"/>
      <point x="504.2075471698113" y="-11.415094339622641"/>
      <point x="564.7169811320755" y="50.44339622641509"/>
      <point x="564.7169811320755" y="146.39622641509436" type="curve" smooth="yes"/>
      <point x="564.7169811320755" y="157.22641509433961" type="line" smooth="yes"/>
      <point x="564.7169811320755" y="226.88679245283018"/>
      <point x="536.6698113207548" y="272.88679245283015"/>
      <point x="465.74528301886795" y="321.4245283018868" type="curve" smooth="yes"/>
      <point x="438.28301886792457" y="340.1320754716981" type="line" smooth="yes"/>
      <point x="422.23584905660374" y="351.7169811320755"/>
      <point x="408.1415094339623" y="361.1792452830189"/>
      <point x="397.63207547169816" y="370.64150943396226" type="curve" smooth="yes"/>
      <point x="396.46226415094344" y="400.66037735849056"/>
      <point x="406.0471698113207" y="416.70754716981133"/>
      <point x="453.72641509433964" y="463.50943396226415" type="curve" smooth="yes"/>
      <point x="473.5566037735849" y="483.04716981132077" type="line" smooth="yes"/>
      <point x="513.3301886792452" y="521.6509433962264"/>
      <point x="536.0849056603773" y="563.7452830188679"/>
      <point x="536.0849056603773" y="612.254716981132" type="curve" smooth="yes"/>
      <point x="536.0849056603773" y="624.2075471698113" type="line"/>
      <point x="536.0849056603773" y="661.8490566037735"/>
      <point x="516.3490566037735" y="700.0"/>
      <point x="485.07547169811323" y="700.0" type="curve"/>
      <point x="335.70754716981133" y="700.0"/>
      <point x="185.9245283018868" y="700.0"/>
      <point x="36.55660377358491" y="700.0" type="curve"/>
      <point x="33.72641509433963" y="685.6792452830189"/>
      <point x="32.31132075471699" y="671.7735849056603"/>
      <point x="32.31132075471699" y="656.7452830188679" type="curve" smooth="yes"/>
      <point x="32.31132075471699" y="602.8584905660377"/>
      <point x="43.43396226415095" y="579.2452830188679"/>
      <point x="68.50943396226415" y="579.2452830188679" type="curve" smooth="yes"/>
      <point x="192.97169811320757" y="579.2452830188679"/>
      <point x="317.4339622641509" y="579.2452830188679"/>
      <point x="441.89622641509436" y="579.2452830188679" type="curve"/>
      <point x="385.9339622641509" y="591.2452830188679" type="line"/>
      <point x="403.811320754717" y="567.0754716981131" type="line"/>
      <point x="430.066037735849" y="600.3962264150944" type="line"/>
      <point x="410.2547169811321" y="572.8615427302962"/>
      <point x="381.6803146742132" y="545.9067297685529"/>
      <point x="354.2830188679245" y="515.6792452830189" type="curve" smooth="yes"/>
      <point x="338.4056603773585" y="497.6792452830189" type="line" smooth="yes"/>
      <point x="301.6522864449604" y="457.38813550156414"/>
      <point x="286.53773584905656" y="424.3207547169811"/>
      <point x="286.53773584905656" y="388.9811320754717" type="curve" smooth="yes"/>
      <point x="286.53773584905656" y="379.933962264151" type="line" smooth="yes"/>
      <point x="286.53773584905656" y="339.02830188679246"/>
      <point x="305.02830188679246" y="309.877358490566"/>
      <point x="352.3490566037736" y="278.26415094339626" type="curve" smooth="yes"/>
      <point x="391.5849056603774" y="253.2924528301887" type="line" smooth="yes"/>
      <point x="444.188679245283" y="219.36792452830187"/>
      <point x="459.8207547169811" y="199.85849056603774"/>
      <point x="459.8207547169811" y="168.4245283018868" type="curve"/>
      <point x="459.8207547169811" y="156.5"/>
      <point x="458.8207547169811" y="147.33018867924528"/>
      <point x="456.52830188679246" y="136.4056603773585" type="curve" smooth="yes"/>
      <point x="445.0660377358491" y="122.38679245283018"/>
      <point x="422.63207547169816" y="115.0"/>
    </contour>
  </outline>
</glyph>
<glyph name="perthousand" format="2">
  <advance width="600.0"/>
  <unicode hex="2030"/>
  <outline>
    <contour>
      <point x="49.24528301886792" y="261.1698113207547" type="curve"/>
      <point x="252.85849056603774" y="316.0943396226415"/>
      <point x="423.0" y="388.20754716981133"/>
      <point x="545.5094339622641" y="487.27358490566036" type="curve" smooth="yes"/>
      <point x="562.3867924528303" y="500.7358490566038"/>
      <point x="577.0" y="520.5188679245283"/>
      <point x="577.0" y="564.9150943396227" type="curve" smooth="yes"/>
      <point x="577.0" y="595.2358490566038"/>
      <point x="573.0" y="636.7075471698113"/>
      <point x="561.5849056603773" y="656.367924528302" type="curve"/>
      <point x="439.1698113207547" y="515.6132075471698"/>
      <point x="229.53773584905662" y="385.566037735849"/>
      <point x="38.367924528301884" y="320.2735849056604" type="curve"/>
      <point x="29.41509433962264" y="305.9056603773585"/>
      <point x="27.0" y="297.07547169811323"/>
      <point x="27.0" y="284.83018867924534" type="curve" smooth="yes"/>
      <point x="27.0" y="266.1698113207547"/>
      <point x="36.41509433962264" y="258.1698113207547"/>
    </contour>
    <contour>
      <point x="9.877358490566039" y="562.632075471698" type="curve" smooth="yes"/>
      <point x="9.877358490566039" y="557.632075471698" type="line" smooth="yes"/>
      <point x="9.877358490566039" y="474.09433962264154"/>
      <point x="59.70754716981132" y="421.26415094339626"/>
      <point x="141.66037735849056" y="421.26415094339626" type="curve" smooth="yes"/>
      <point x="227.32075471698116" y="421.26415094339626"/>
      <point x="282.1509433962264" y="477.50943396226415"/>
      <point x="282.1509433962264" y="566.2924528301887" type="curve" smooth="yes"/>
      <point x="282.1509433962264" y="571.0" type="line" smooth="yes"/>
      <point x="282.1509433962264" y="652.877358490566"/>
      <point x="226.19811320754718" y="710.0"/>
      <point x="148.3679245283019" y="710.0" type="curve" smooth="yes"/>
      <point x="65.41509433962264" y="710.0"/>
      <point x="9.877358490566039" y="650.1698113207547"/>
    </contour>
    <contour>
      <point x="82.0566037735849" y="557.4622641509434" type="curve" smooth="yes"/>
      <point x="82.0566037735849" y="561.0471698113207" type="line" smooth="yes"/>
      <point x="82.0566037735849" y="611.7264150943397"/>
      <point x="109.68867924528301" y="645.9433962264152"/>
      <point x="149.95283018867926" y="645.9433962264152" type="curve" smooth="yes"/>
      <point x="158.12264150943398" y="645.9433962264152"/>
      <point x="166.0" y="645.9433962264151"/>
      <point x="172.87735849056605" y="644.6509433962264" type="curve"/>
      <point x="187.18867924528303" y="631.6509433962264"/>
      <point x="193.69811320754718" y="610.7264150943396"/>
      <point x="193.69811320754718" y="581.5377358490566" type="curve" smooth="yes"/>
      <point x="193.69811320754718" y="577.9528301886793" type="line" smooth="yes"/>
      <point x="193.69811320754718" y="529.6886792452831"/>
      <point x="170.89622641509433" y="503.00943396226415"/>
      <point x="123.46226415094341" y="503.00943396226415" type="curve" smooth="yes"/>
      <point x="114.75471698113208" y="503.00943396226415"/>
      <point x="107.04716981132074" y="503.7169811320755"/>
      <point x="100.04716981132077" y="506.83962264150944" type="curve"/>
      <point x="88.44339622641509" y="519.5943396226415"/>
      <point x="82.0566037735849" y="537.1509433962264"/>
    </contour>
    <contour>
      <point x="112.80188679245283" y="131.3679245283019" type="curve" smooth="yes"/>
      <point x="112.80188679245283" y="126.36792452830188" type="line" smooth="yes"/>
      <point x="112.80188679245283" y="42.83018867924528"/>
      <point x="162.63207547169813" y="-10.0"/>
      <point x="244.58490566037736" y="-10.0" type="curve" smooth="yes"/>
      <point x="320.0" y="-10.0"/>
      <point x="368.0" y="46.24528301886792"/>
      <point x="368.0" y="135.02830188679246" type="curve" smooth="yes"/>
      <point x="368.0" y="139.7358490566038" type="line" smooth="yes"/>
      <point x="368.0" y="221.61320754716982"/>
      <point x="318.877358490566" y="278.73584905660374"/>
      <point x="251.2924528301887" y="278.73584905660374" type="curve" smooth="yes"/>
      <point x="168.3396226415094" y="278.73584905660374"/>
      <point x="112.80188679245283" y="218.90566037735852"/>
    </contour>
    <contour>
      <point x="184.9811320754717" y="126.19811320754717" type="curve" smooth="yes"/>
      <point x="184.9811320754717" y="129.78301886792454" type="line" smooth="yes"/>
      <point x="184.9811320754717" y="180.4622641509434"/>
      <point x="212.61320754716982" y="214.67924528301887"/>
      <point x="252.87735849056605" y="214.67924528301887" type="curve" smooth="yes"/>
      <point x="261.0471698113207" y="214.67924528301887"/>
      <point x="268.9245283018868" y="214.67924528301887"/>
      <point x="275.8018867924528" y="213.38679245283018" type="curve"/>
      <point x="290.1132075471698" y="200.38679245283018"/>
      <point x="296.622641509434" y="179.46226415094338"/>
      <point x="296.622641509434" y="150.27358490566039" type="curve" smooth="yes"/>
      <point x="296.622641509434" y="146.68867924528303" type="line" smooth="yes"/>
      <point x="296.622641509434" y="98.4245283018868"/>
      <point x="273.8207547169811" y="71.74528301886792"/>
      <point x="226.38679245283018" y="71.74528301886792" type="curve" smooth="yes"/>
      <point x="217.67924528301887" y="71.74528301886792"/>
      <point x="209.97169811320754" y="72.45283018867924"/>
      <point x="202.97169811320757" y="75.5754716981132" type="curve"/>
      <point x="191.3679245283019" y="88.33018867924528"/>
      <point x="184.9811320754717" y="105.88679245283018"/>
    </contour>
    <contour>
      <point x="588.0" y="135.02830188679246" type="curve" smooth="yes"/>
      <point x="588.0" y="139.7358490566038" type="line" smooth="yes"/>
      <point x="588.0" y="221.61320754716982"/>
      <point x="532.0471698113207" y="278.73584905660374"/>
      <point x="454.2169811320755" y="278.73584905660374" type="curve" smooth="yes"/>
      <point x="377.26415094339626" y="278.73584905660374"/>
      <point x="325.7264150943396" y="218.90566037735852"/>
      <point x="325.7264150943396" y="131.3679245283019" type="curve" smooth="yes"/>
      <point x="325.7264150943396" y="126.36792452830188" type="line" smooth="yes"/>
      <point x="325.7264150943396" y="42.83018867924528"/>
      <point x="371.55660377358487" y="-10.0"/>
      <point x="447.50943396226415" y="-10.0" type="curve" smooth="yes"/>
      <point x="533.1698113207547" y="-10.0"/>
      <point x="588.0" y="46.24528301886792"/>
    </contour>
    <contour>
      <point x="387.9056603773585" y="126.19811320754717" type="curve" smooth="yes"/>
      <point x="387.9056603773585" y="129.78301886792454" type="line" smooth="yes"/>
      <point x="387.9056603773585" y="180.4622641509434"/>
      <point x="415.53773584905656" y="214.67924528301887"/>
      <point x="455.8018867924528" y="214.67924528301887" type="curve" smooth="yes"/>
      <point x="463.97169811320754" y="214.67924528301887"/>
      <point x="471.8490566037736" y="214.67924528301887"/>
      <point x="478.72641509433964" y="213.38679245283018" type="curve"/>
      <point x="493.0377358490566" y="200.38679245283018"/>
      <point x="499.5471698113207" y="179.4622641509434"/>
      <point x="499.5471698113207" y="150.27358490566039" type="curve" smooth="yes"/>
      <point x="499.5471698113207" y="146.68867924528303" type="line" smooth="yes"/>
      <point x="499.5471698113207" y="98.4245283018868"/>
      <point x="476.7452830188679" y="71.74528301886792"/>
      <point x="429.311320754717" y="71.74528301886792" type="curve" smooth="yes"/>
      <point x="420.311320754717" y="71.74528301886792"/>
      <point x="412.311320754717" y="72.74528301886792"/>
      <point x="405.31132075471703" y="76.16037735849056" type="curve"/>
      <point x="394.0" y="88.91509433962264"/>
      <point x="387.9056603773585" y="106.17924528301886"/>
    </contour>
  </outline>
</glyph>
<glyph name="tenge" format="2">
  <advance width="600.0"/>
  <unicode hex="20B8"/>
  <outline>
    <contour>
      <point x="35.216981132075475" y="520.8962264150944" type="line"/>
      <point x="32.509433962264154" y="509.11320754716985"/>
      <point x="31.509433962264154" y="498.8679245283019"/>
      <point x="31.509433962264154" y="485.79245283018867" type="curve" smooth="yes"/>
      <point x="31.509433962264154" y="431.41509433962267"/>
      <point x="63.15094339622642" y="400.14150943396226"/>
      <point x="156.9811320754717" y="400.14150943396226" type="curve" smooth="yes"/>
      <point x="558.0" y="400.14150943396226" type="line"/>
      <point x="561.122641509434" y="411.9245283018868"/>
      <point x="564.2452830188679" y="427.5377358490566"/>
      <point x="564.2452830188679" y="445.27358490566036" type="curve" smooth="yes"/>
      <point x="564.2452830188679" y="488.377358490566"/>
      <point x="549.1698113207548" y="520.8962264150944"/>
      <point x="506.57547169811323" y="520.8962264150944" type="curve"/>
    </contour>
    <contour>
      <point x="36.632075471698116" y="700.0" type="line"/>
      <point x="33.216981132075475" y="688.9245283018868"/>
      <point x="31.509433962264154" y="677.9716981132075"/>
      <point x="31.509433962264154" y="664.8962264150944" type="curve" smooth="yes"/>
      <point x="31.509433962264154" y="614.0566037735849"/>
      <point x="50.41509433962264" y="594.1037735849058"/>
      <point x="117.35849056603774" y="594.1037735849058" type="curve" smooth="yes"/>
      <point x="556.5849056603773" y="594.1037735849058" type="line"/>
      <point x="560.4150943396227" y="608.7169811320754"/>
      <point x="564.2452830188679" y="625.0377358490566"/>
      <point x="564.2452830188679" y="643.4811320754717" type="curve" smooth="yes"/>
      <point x="564.2452830188679" y="682.3396226415094"/>
      <point x="549.1698113207548" y="700.0"/>
      <point x="506.57547169811323" y="700.0" type="curve"/>
    </contour>
    <contour>
      <point x="373.74528301886795" y="-0.5849056603773586" type="curve"/>
      <point x="365.622641509434" y="31.584905660377355"/>
      <point x="363.91509433962267" y="65.87735849056602"/>
      <point x="363.91509433962267" y="98.63207547169812" type="curve" smooth="yes"/>
      <point x="363.91509433962267" y="152.77358490566039"/>
      <point x="363.91509433962267" y="260.54716981132077"/>
      <point x="363.91509433962267" y="316.5" type="curve" smooth="yes"/>
      <point x="363.91509433962267" y="347.9433962264151"/>
      <point x="358.37735849056605" y="371.6037735849057"/>
      <point x="332.933962264151" y="394.72641509433964" type="curve"/>
      <point x="336.1509433962264" y="424.433962264151" type="line"/>
      <point x="236.08490566037736" y="424.433962264151" type="line"/>
      <point x="236.08490566037736" y="377.8207547169811"/>
      <point x="236.08490566037736" y="134.99056603773585"/>
      <point x="236.08490566037736" y="88.9622641509434" type="curve" smooth="yes"/>
      <point x="236.08490566037736" y="25.41509433962264"/>
      <point x="263.0188679245283" y="-5.7075471698113205"/>
      <point x="330.68867924528297" y="-5.7075471698113205" type="curve" smooth="yes"/>
      <point x="348.59433962264154" y="-5.7075471698113205"/>
      <point x="359.2547169811321" y="-4.0"/>
    </contour>
  </outline>
</glyph>
<glyph name="arrowNW" format="2">
  <advance width="600.0"/>
  <unicode hex="2196"/>
  <outline>
    <contour>
      <point x="240.9245283018868" y="470.65094339622647" type="curve"/>
      <point x="233.26415094339623" y="467.9433962264151"/>
      <point x="224.60377358490564" y="462.8207547169811"/>
      <point x="217.6509433962264" y="454.4528301886793" type="curve" smooth="yes"/>
      <point x="201.2830188679245" y="435.9622641509434"/>
      <point x="201.69811320754715" y="417.76415094339626"/>
      <point x="214.52830188679246" y="395.1509433962264" type="curve" smooth="yes"/>
      <point x="252.5188679245283" y="336.54716981132077"/>
      <point x="285.3490566037736" y="298.64150943396226"/>
      <point x="346.1132075471698" y="236.0" type="curve" smooth="yes"/>
      <point x="403.35849056603774" y="177.46226415094338"/>
      <point x="460.6037735849057" y="117.09433962264151"/>
      <point x="501.57547169811323" y="62.094339622641506" type="curve"/>
      <point x="520.188679245283" y="67.21698113207547"/>
      <point x="540.4622641509434" y="77.29245283018868"/>
      <point x="554.9528301886793" y="89.66037735849056" type="curve" smooth="yes"/>
      <point x="588.8867924528302" y="119.34905660377359"/>
      <point x="588.7641509433963" y="154.16037735849056"/>
      <point x="561.0754716981132" y="187.50943396226415" type="curve" smooth="yes"/>
      <point x="525.1037735849056" y="230.43396226415092"/>
      <point x="480.64150943396226" y="275.188679245283"/>
      <point x="431.22641509433964" y="321.65094339622647" type="curve" smooth="yes"/>
      <point x="368.1698113207547" y="383.04716981132077"/>
      <point x="322.97169811320754" y="416.87735849056605"/>
    </contour>
    <contour>
      <point x="76.50943396226415" y="621.1320754716982" type="curve"/>
      <point x="69.63207547169812" y="614.254716981132" type="line" smooth="yes"/>
      <point x="40.0188679245283" y="584.6415094339623"/>
      <point x="28.943396226415096" y="562.0754716981132"/>
      <point x="27.943396226415096" y="510.9433962264151" type="curve" smooth="yes"/>
      <point x="24.31132075471698" y="401.44339622641513"/>
      <point x="42.971698113207545" y="285.7452830188679"/>
      <point x="67.75471698113208" y="206.89622641509436" type="curve" smooth="yes"/>
      <point x="86.78301886792453" y="151.91509433962264"/>
      <point x="102.15094339622642" y="136.91509433962264"/>
      <point x="124.93396226415095" y="135.5" type="curve" smooth="yes"/>
      <point x="147.83962264150944" y="134.08490566037736"/>
      <point x="176.77358490566039" y="155.23584905660377"/>
      <point x="202.21698113207546" y="198.41509433962264" type="curve"/>
      <point x="155.77358490566039" y="299.2358490566038"/>
      <point x="129.74528301886792" y="418.64150943396226"/>
      <point x="141.0377358490566" y="549.0188679245283" type="curve"/>
      <point x="117.74528301886792" y="500.6509433962264" type="line"/>
      <point x="166.20754716981133" y="547.4811320754717" type="line"/>
      <point x="115.79245283018867" y="523.066037735849" type="line"/>
      <point x="231.7830188679245" y="535.6509433962265"/>
      <point x="366.3018867924528" y="514.4056603773586"/>
      <point x="478.5377358490566" y="463.99056603773585" type="curve"/>
      <point x="516.7641509433962" y="489.26415094339626"/>
      <point x="538.2075471698113" y="519.1981132075472"/>
      <point x="539.622641509434" y="544.6415094339623" type="curve" smooth="yes"/>
      <point x="541.0377358490566" y="567.0094339622641"/>
      <point x="528.9150943396227" y="583.377358490566"/>
      <point x="469.3962264150943" y="600.0377358490566" type="curve" smooth="yes"/>
      <point x="358.95283018867923" y="631.5754716981132"/>
      <point x="200.91509433962267" y="647.2075471698114"/>
    </contour>
  </outline>
</glyph>
<glyph name="approxequal" format="2">
  <advance width="600.0"/>
  <unicode hex="2248"/>
  <outline>
    <contour>
      <point x="420.50943396226415" y="424.933962264151" type="curve" smooth="yes"/>
      <point x="332.33962264150944" y="424.933962264151"/>
      <point x="253.21698113207546" y="542.622641509434"/>
      <point x="164.04716981132077" y="542.622641509434" type="curve" smooth="yes"/>
      <point x="111.04716981132076" y="542.622641509434"/>
      <point x="78.87735849056604" y="516.377358490566"/>
      <point x="62.16981132075472" y="477.64150943396226" type="curve" smooth="yes"/>
      <point x="56.16981132075472" y="464.811320754717"/>
      <point x="51.339622641509436" y="443.3679245283019"/>
      <point x="51.339622641509436" y="413.3867924528302" type="curve" smooth="yes"/>
      <point x="51.339622641509436" y="397.72641509433964"/>
      <point x="53.339622641509436" y="375.2830188679245"/>
      <point x="59.4622641509434" y="360.7924528301887" type="curve"/>
      <point x="65.4622641509434" y="360.7924528301887" type="line"/>
      <point x="101.24528301886792" y="401.74528301886795"/>
      <point x="133.63383122026886" y="418.3301886792453"/>
      <point x="179.49056603773585" y="418.3301886792453" type="curve" smooth="yes"/>
      <point x="267.66037735849056" y="418.3301886792453"/>
      <point x="346.7830188679245" y="300.64150943396226"/>
      <point x="435.9528301886793" y="300.64150943396226" type="curve" smooth="yes"/>
      <point x="488.9528301886793" y="300.64150943396226"/>
      <point x="521.122641509434" y="326.8867924528302"/>
      <point x="537.8301886792453" y="365.622641509434" type="curve" smooth="yes"/>
      <point x="543.8301886792453" y="378.45283018867923"/>
      <point x="548.6603773584906" y="399.8962264150943"/>
      <point x="548.6603773584906" y="429.87735849056605" type="curve" smooth="yes"/>
      <point x="548.6603773584906" y="445.5377358490566"/>
      <point x="546.6603773584906" y="467.9811320754717"/>
      <point x="540.5377358490566" y="482.47169811320754" type="curve"/>
      <point x="534.5377358490566" y="482.47169811320754" type="line"/>
      <point x="498.7547169811321" y="441.5188679245283"/>
      <point x="466.36616877973114" y="424.933962264151"/>
    </contour>
    <contour>
      <point x="420.50943396226415" y="181.30188679245282" type="curve" smooth="yes"/>
      <point x="332.33962264150944" y="181.30188679245282"/>
      <point x="253.21698113207546" y="298.99056603773585"/>
      <point x="164.04716981132077" y="298.99056603773585" type="curve" smooth="yes"/>
      <point x="111.04716981132076" y="298.99056603773585"/>
      <point x="78.87735849056604" y="272.7452830188679"/>
      <point x="62.16981132075472" y="234.00943396226415" type="curve" smooth="yes"/>
      <point x="56.16981132075472" y="221.17924528301884"/>
      <point x="51.339622641509436" y="199.73584905660377"/>
      <point x="51.339622641509436" y="169.75471698113208" type="curve" smooth="yes"/>
      <point x="51.339622641509436" y="154.0943396226415"/>
      <point x="53.339622641509436" y="131.6509433962264"/>
      <point x="59.4622641509434" y="117.16037735849056" type="curve"/>
      <point x="65.4622641509434" y="117.16037735849056" type="line"/>
      <point x="101.24528301886792" y="158.11320754716982"/>
      <point x="133.63383122026886" y="174.69811320754715"/>
      <point x="179.49056603773585" y="174.69811320754715" type="curve" smooth="yes"/>
      <point x="267.66037735849056" y="174.69811320754715"/>
      <point x="346.7830188679245" y="57.009433962264154"/>
      <point x="435.9528301886793" y="57.009433962264154" type="curve" smooth="yes"/>
      <point x="488.9528301886793" y="57.009433962264154"/>
      <point x="521.122641509434" y="83.25471698113208"/>
      <point x="537.8301886792453" y="121.99056603773585" type="curve" smooth="yes"/>
      <point x="543.8301886792453" y="134.82075471698113"/>
      <point x="548.6603773584906" y="156.2641509433962"/>
      <point x="548.6603773584906" y="186.24528301886792" type="curve" smooth="yes"/>
      <point x="548.6603773584906" y="201.9056603773585"/>
      <point x="546.6603773584906" y="224.3490566037736"/>
      <point x="540.5377358490566" y="238.83962264150944" type="curve"/>
      <point x="534.5377358490566" y="238.83962264150944" type="line"/>
      <point x="498.7547169811321" y="197.88679245283018"/>
      <point x="466.36616877973114" y="181.30188679245282"/>
    </contour>
  </outline>
</glyph>
<glyph name="commaaboverightcomb.case" format="2">
  <anchor x="0.0" y="550.0" name="_caronslovak"/>
  <outline>
    <contour>
      <point x="-44.66981132075472" y="701.4622641509434" type="curve"/>
      <point x="-44.66981132075471" y="610.7547169811321"/>
      <point x="-49.25471698113207" y="557.5566037735849"/>
      <point x="-67.22641509433963" y="485.04716981132077" type="curve"/>
      <point x="-53.443396226415096" y="477.50943396226415"/>
      <point x="-41.783018867924525" y="474.8018867924528"/>
      <point x="-20.16981132075472" y="474.8018867924528" type="curve" smooth="yes"/>
      <point x="-0.26415094339623124" y="474.8018867924528"/>
      <point x="11.811320754716977" y="478.92452830188677"/>
      <point x="22.76415094339622" y="489.87735849056605" type="curve" smooth="yes"/>
      <point x="56.42452830188679" y="523.5377358490566"/>
      <point x="71.59433962264151" y="594.9245283018868"/>
      <point x="71.5943396226415" y="657.311320754717" type="curve" smooth="yes"/>
      <point x="71.59433962264151" y="693.5094339622642"/>
      <point x="42.02830188679245" y="709.2924528301887"/>
      <point x="2.3867924528301856" y="709.2924528301887" type="curve" smooth="yes"/>
      <point x="-14.273584905660378" y="709.2924528301887"/>
      <point x="-26.349056603773583" y="707.2924528301887"/>
    </contour>
  </outline>
</glyph>
<glyph name="d.italic" format="2">
  <advance width="600.0"/>
  <anchor x="527.6698113207548" y="702.2264150943396" name="caronslovak"/>
  <anchor x="299.2735849056604" y="0.0" name="bottom"/>
  <outline>
    <contour>
      <point x="262.57547169811323" y="547.3207547169811" type="curve" smooth="yes"/>
      <point x="152.4622641509434" y="547.3207547169811"/>
      <point x="50.23584905660378" y="449.73584905660374"/>
      <point x="50.23584905660378" y="216.24528301886792" type="curve" smooth="yes"/>
      <point x="50.23584905660378" y="195.70754716981133" type="line" smooth="yes"/>
      <point x="50.23584905660378" y="79.32075471698113"/>
      <point x="122.26415094339623" y="-11.415094339622641"/>
      <point x="206.4056603773585" y="-11.415094339622641" type="curve" smooth="yes"/>
      <point x="280.74528301886795" y="-11.415094339622641"/>
      <point x="352.5" y="60.95283018867924"/>
      <point x="387.0094339622642" y="152.2924528301887" type="curve"/>
      <point x="408.0849056603774" y="152.2924528301887" type="line"/>
      <point x="403.83962264150944" y="314.6981132075471" type="line"/>
      <point x="357.8962264150943" y="170.16981132075472"/>
      <point x="295.3867924528302" y="117.12264150943396"/>
      <point x="218.38679245283018" y="117.12264150943396" type="curve" smooth="yes"/>
      <point x="203.85849056603772" y="117.12264150943396"/>
      <point x="191.66981132075472" y="122.38679245283019"/>
      <point x="181.69811320754718" y="134.2075471698113" type="curve" smooth="yes"/>
      <point x="175.8207547169811" y="158.47169811320754"/>
      <point x="174.52830188679243" y="183.9811320754717"/>
      <point x="174.52830188679243" y="221.81132075471697" type="curve" smooth="yes"/>
      <point x="174.52830188679243" y="232.22641509433961" type="line" smooth="yes"/>
      <point x="174.52830188679243" y="361.8679245283019"/>
      <point x="215.20754716981133" y="430.811320754717"/>
      <point x="299.7358490566038" y="430.811320754717" type="curve" smooth="yes"/>
      <point x="349.4622641509434" y="430.811320754717"/>
      <point x="375.0188679245283" y="414.47169811320754"/>
      <point x="408.0849056603774" y="376.7735849056604" type="curve"/>
      <point x="413.96226415094344" y="471.8301886792453" type="line"/>
      <point x="387.00943396226415" y="471.8301886792453" type="line"/>
      <point x="365.2075471698113" y="512.2452830188679"/>
      <point x="321.8207547169811" y="547.3207547169811"/>
    </contour>
    <contour>
      <point x="376.64150943396226" y="751.4622641509434" type="curve"/>
      <point x="389.1792452830189" y="726.5849056603773"/>
      <point x="394.00943396226415" y="693.066037735849"/>
      <point x="394.00943396226415" y="655.9716981132075" type="curve" smooth="yes"/>
      <point x="394.00943396226415" y="481.90566037735846"/>
      <point x="394.00943396226415" y="306.54716981132077"/>
      <point x="394.00943396226415" y="132.4811320754717" type="curve" smooth="yes"/>
      <point x="394.00943396226415" y="47.471698113207545"/>
      <point x="439.8207547169811" y="-10.0"/>
      <point x="500.14150943396226" y="-10.0" type="curve" smooth="yes"/>
      <point x="520.5094339622642" y="-10.0"/>
      <point x="537.5849056603773" y="-2.4622641509433967"/>
      <point x="553.367924528302" y="13.320754716981131" type="curve" smooth="yes"/>
      <point x="569.1509433962265" y="29.10377358490566"/>
      <point x="580.2264150943397" y="60.20754716981132"/>
      <point x="580.2264150943397" y="93.31132075471697" type="curve"/>
      <point x="580.2264150943397" y="105.09433962264151"/>
      <point x="579.5188679245283" y="117.58490566037736"/>
      <point x="577.3962264150944" y="128.66037735849056" type="curve"/>
      <point x="571.3962264150944" y="128.66037735849056" type="line"/>
      <point x="559.9811320754717" y="116.0"/>
      <point x="541.0754716981132" y="111.58490566037736"/>
      <point x="526.6603773584906" y="111.58490566037736" type="curve" smooth="yes"/>
      <point x="522.0283018867924" y="111.58490566037736"/>
      <point x="517.6886792452831" y="112.75471698113208"/>
      <point x="512.9339622641509" y="115.38679245283018" type="curve" smooth="yes"/>
      <point x="512.6415094339623" y="122.5566037735849"/>
      <point x="512.6415094339623" y="130.89622641509433"/>
      <point x="512.6415094339623" y="141.28301886792454" type="curve" smooth="yes"/>
      <point x="512.6415094339623" y="297.66037735849056"/>
      <point x="512.6415094339623" y="453.62264150943395"/>
      <point x="512.6415094339623" y="610.0" type="curve" smooth="yes"/>
      <point x="512.6415094339623" y="722.433962264151"/>
      <point x="466.1698113207547" y="756.5849056603773"/>
      <point x="413.16037735849056" y="756.5849056603773" type="curve" smooth="yes"/>
      <point x="401.0849056603774" y="756.5849056603773"/>
      <point x="388.71698113207543" y="754.1698113207547"/>
    </contour>
  </outline>
</glyph>
<glyph name="fl.mono" format="2">
  <advance width="1200.0"/>
  <outline>
    <contour>
      <point x="53.86792452830189" y="514.6792452830189" type="line"/>
      <point x="53.86792452830189" y="509.5566037735849"/>
      <point x="53.86792452830189" y="504.14150943396226"/>
      <point x="53.86792452830189" y="498.311320754717" type="curve" smooth="yes"/>
      <point x="53.86792452830189" y="421.12264150943395"/>
      <point x="79.38679245283019" y="393.92452830188677"/>
      <point x="188.66037735849056" y="393.92452830188677" type="curve" smooth="yes"/>
      <point x="641.8396226415094" y="393.92452830188677" type="line"/>
      <point x="644.6698113207548" y="406.8301886792453"/>
      <point x="646.7924528301887" y="424.27358490566036"/>
      <point x="646.7924528301887" y="441.4245283018868" type="curve" smooth="yes"/>
      <point x="646.7924528301887" y="494.5566037735849"/>
      <point x="628.3490566037736" y="514.6792452830189"/>
      <point x="567.1886792452831" y="514.6792452830189" type="curve"/>
    </contour>
    <contour>
      <point x="825.5" y="628.5943396226415" type="curve"/>
      <point x="825.5" y="461.65094339622647"/>
      <point x="825.5" y="317.5566037735849"/>
      <point x="825.5" y="150.61320754716982" type="curve" smooth="yes"/>
      <point x="825.5" y="66.9622641509434"/>
      <point x="888.5754716981132" y="-12.924528301886793"/>
      <point x="1003.8018867924528" y="-12.924528301886793" type="curve" smooth="yes"/>
      <point x="1070.1509433962265" y="-12.924528301886793"/>
      <point x="1102.7830188679245" y="3.0283018867924527"/>
      <point x="1122.075471698113" y="22.32075471698113" type="curve" smooth="yes"/>
      <point x="1138.0283018867922" y="38.27358490566037"/>
      <point x="1151.5188679245282" y="68.83962264150942"/>
      <point x="1151.5188679245282" y="108.48113207547169" type="curve" smooth="yes"/>
      <point x="1151.5188679245282" y="119.31132075471697"/>
      <point x="1150.5188679245282" y="130.84905660377356"/>
      <point x="1148.1037735849056" y="141.50943396226415" type="curve"/>
      <point x="1142.1037735849056" y="141.50943396226415" type="line"/>
      <point x="1104.4905660377358" y="114.33962264150942"/>
      <point x="1067.7830188679243" y="104.29245283018867"/>
      <point x="1012.4622641509434" y="104.29245283018867" type="curve" smooth="yes"/>
      <point x="990.320754716981" y="104.29245283018867"/>
      <point x="970.3490566037736" y="106.4622641509434"/>
      <point x="955.0094339622641" y="114.84905660377358" type="curve" smooth="yes"/>
      <point x="948.5471698113207" y="135.72641509433961"/>
      <point x="946.2547169811321" y="160.72641509433961"/>
      <point x="946.2547169811321" y="196.5754716981132" type="curve" smooth="yes"/>
      <point x="946.2547169811321" y="358.73584905660374"/>
      <point x="946.2547169811321" y="502.688679245283"/>
      <point x="946.2547169811321" y="630.8867924528302" type="curve" smooth="yes"/>
      <point x="946.2547169811321" y="679.7264150943397"/>
      <point x="936.0094339622642" y="705.4622641509434"/>
      <point x="907.1509433962264" y="726.1981132075472" type="curve" smooth="yes"/>
      <point x="870.9811320754717" y="751.0283018867925"/>
      <point x="762.0754716981132" y="767.0754716981132"/>
      <point x="611.9245283018869" y="767.0754716981132" type="curve" smooth="yes"/>
      <point x="308.88679245283015" y="767.0754716981132"/>
      <point x="233.30188679245282" y="675.9716981132075"/>
      <point x="233.30188679245282" y="538.7358490566038" type="curve" smooth="yes"/>
      <point x="233.30188679245282" y="396.1509433962264"/>
      <point x="233.30188679245282" y="247.0754716981132"/>
      <point x="233.30188679245282" y="104.49056603773585" type="curve"/>
      <point x="233.30188679245282" y="62.15094339622641"/>
      <point x="226.3490566037736" y="30.58490566037736"/>
      <point x="216.5188679245283" y="0.0" type="curve"/>
      <point x="226.88679245283018" y="-4.122641509433962"/>
      <point x="241.25471698113202" y="-8.245283018867925"/>
      <point x="265.23584905660374" y="-8.245283018867925" type="curve"/>
      <point x="322.9056603773585" y="-8.245283018867925"/>
      <point x="354.05660377358487" y="14.830188679245282"/>
      <point x="354.05660377358487" y="77.68867924528303" type="curve"/>
      <point x="354.05660377358487" y="181.86792452830187"/>
      <point x="354.05660377358487" y="414.4056603773585"/>
      <point x="354.05660377358487" y="512.9245283018868" type="curve" smooth="yes"/>
      <point x="350.51886792452825" y="562.4528301886792"/>
      <point x="348.3207547169811" y="594.9150943396226"/>
      <point x="356.5094339622642" y="629.745283018868" type="curve" smooth="yes"/>
      <point x="405.84905660377353" y="643.933962264151"/>
      <point x="472.6037735849056" y="651.9811320754717"/>
      <point x="561.0094339622642" y="651.9811320754717" type="curve" smooth="yes"/>
      <point x="683.5188679245283" y="651.9811320754717"/>
      <point x="772.5471698113207" y="642.5188679245283"/>
    </contour>
  </outline>
</glyph>
<glyph name="gravecombviet.case" format="2">
  <anchor x="0.0" y="712.0" name="_top"/>
  <anchor x="0.0" y="711.0" name="_side"/>
  <outline>
    <contour>
      <point x="-38.57547169811321" y="934.0" type="curve"/>
      <point x="-69.38679245283018" y="934.0"/>
      <point x="-90.12264150943396" y="931.5849056603773"/>
      <point x="-110.15094339622642" y="926.4622641509434" type="curve" smooth="yes"/>
      <point x="-133.47169811320754" y="920.0471698113207"/>
      <point x="-140.00943396226415" y="902.6792452830189"/>
      <point x="-128.22641509433961" y="872.9905660377359" type="curve" smooth="yes"/>
      <point x="-114.10377358490565" y="836.5754716981131"/>
      <point x="-94.17924528301886" y="811.7735849056604"/>
      <point x="-67.25471698113208" y="789.7264150943396" type="curve" smooth="yes"/>
      <point x="-47.886792452830186" y="773.3584905660377"/>
      <point x="-29.22641509433962" y="767.6509433962264"/>
      <point x="-6.613207547169811" y="767.6509433962264" type="curve" smooth="yes"/>
      <point x="16.0" y="767.6509433962264"/>
      <point x="33.61320754716981" y="771.3584905660377"/>
      <point x="58.301886792452834" y="782.188679245283" type="curve"/>
      <point x="12.254716981132074" y="820.7264150943397"/>
      <point x="-21.03773584905661" y="872.3867924528302"/>
    </contour>
  </outline>
</glyph>
<glyph name="numbersign_numbersign_numbersign.code" format="2">
  <advance width="1800.0"/>
  <outline>
    <contour>
      <point x="487.99056603773585" y="428.7735849056604" type="line"/>
      <point x="804.7075471698113" y="428.7735849056604" type="line"/>
      <point x="804.7075471698113" y="535.377358490566" type="line"/>
      <point x="487.99056603773585" y="535.377358490566" type="line"/>
    </contour>
    <contour>
      <point x="426.76415094339626" y="164.62264150943395" type="line"/>
      <point x="743.4811320754717" y="164.62264150943395" type="line"/>
      <point x="743.4811320754717" y="271.22641509433964" type="line"/>
      <point x="426.76415094339626" y="271.22641509433964" type="line"/>
    </contour>
    <contour>
      <point x="1066.7641509433963" y="428.7735849056604" type="line"/>
      <point x="1383.4811320754718" y="428.7735849056604" type="line"/>
      <point x="1383.4811320754718" y="535.377358490566" type="line"/>
      <point x="1066.7641509433963" y="535.377358490566" type="line"/>
    </contour>
    <contour>
      <point x="1005.5377358490566" y="164.62264150943395" type="line"/>
      <point x="1322.254716981132" y="164.62264150943395" type="line"/>
      <point x="1322.254716981132" y="271.22641509433964" type="line"/>
      <point x="1005.5377358490566" y="271.22641509433964" type="line"/>
    </contour>
    <component base="numbersign" xOffset="27.594339622641506"/>
    <component base="numbersign" xOffset="602.8301886792453"/>
    <component base="numbersign" xOffset="1177.3584905660377"/>
  </outline>
</glyph>
<glyph name="ogonekcombo.case" format="2">
  <anchor x="65.79245283018868" y="85.65094339622641" name="_ogonek"/>
  <outline>
    <contour>
      <point x="12.273584905660377" y="71.58490566037736" type="curve" smooth="yes"/>
      <point x="-47.29245283018869" y="46.518867924528294"/>
      <point x="-110.21698113207546" y="-47.075471698113205"/>
      <point x="-110.21698113207546" y="-134.2924528301887" type="curve" smooth="yes"/>
      <point x="-110.21698113207546" y="-210.2924528301887"/>
      <point x="-71.04716981132074" y="-250.0"/>
      <point x="4.613207547169809" y="-250.0" type="curve" smooth="yes"/>
      <point x="67.56603773584905" y="-250.0"/>
      <point x="106.27358490566039" y="-223.75471698113208"/>
      <point x="106.27358490566039" y="-170.06603773584905" type="curve" smooth="yes"/>
      <point x="106.27358490566039" y="-148.33018867924528"/>
      <point x="103.4433962264151" y="-134.54716981132077"/>
      <point x="93.78301886792453" y="-115.51886792452831" type="curve"/>
      <point x="87.78301886792454" y="-115.51886792452831" type="line"/>
      <point x="68.85849056603774" y="-128.02830188679246"/>
      <point x="52.764150943396224" y="-133.49056603773587"/>
      <point x="30.962264150943394" y="-133.49056603773587" type="curve" smooth="yes"/>
      <point x="3.160377358490564" y="-133.49056603773587"/>
      <point x="-12.641509433962263" y="-120.27358490566037"/>
      <point x="-12.641509433962263" y="-85.4245283018868" type="curve" smooth="yes"/>
      <point x="-12.641509433962263" y="-42.72641509433962"/>
      <point x="9.71698113207547" y="4.509433962264151"/>
      <point x="45.54716981132076" y="53.0188679245283" type="curve" smooth="yes"/>
      <point x="55.13207547169811" y="66.35849056603774"/>
      <point x="61.96226415094339" y="78.35849056603774"/>
      <point x="64.79245283018868" y="85.65094339622641" type="curve"/>
      <point x="46.424528301886795" y="84.77358490566037"/>
      <point x="30.056603773584904" y="78.04716981132074"/>
    </contour>
  </outline>
</glyph>
